<svg width="138" height="51" viewBox="0 0 138 51" fill="none" xmlns="http://www.w3.org/2000/svg">
<path fill-rule="evenodd" clip-rule="evenodd" d="M72.8447 42.7255V30.1685L58.1535 24.514L65.8642 17.0734L55.7586 8.1665L52.8926 13.6183L53.0025 8.37709L40.1958 12.4406L40.5256 19.2728L42.7006 18.7112L44.962 42.819L53.9919 41.501L53.9762 33.452L72.8447 42.7255Z" fill="#0B0000"/>
<path fill-rule="evenodd" clip-rule="evenodd" d="M42.606 14.1943L50.3874 11.8935L50.8663 19.8566L56.5983 11.8623L62.1969 17.1581L54.3684 25.3552L70.4808 31.6961V38.9885L51.7615 29.6838L51.7929 39.433L46.9482 40.0882L44.8831 15.6996L42.7002 16.2611L42.606 14.1943Z" fill="white"/>
<path fill-rule="evenodd" clip-rule="evenodd" d="M101.606 9.3667H93.1253L92.8819 10.7472H83.9619L79.7925 36.0717L89.9688 37.6628L90.5262 34.0283L93.1881 38.9029L94.8056 35.7909L95.4024 40.8995L106.937 42.9195L101.606 9.3667Z" fill="#0B0000"/>
<path fill-rule="evenodd" clip-rule="evenodd" d="M95.356 11.7078H99.6747L104.048 39.918L97.6724 38.9509L95.9763 27.79L93.5815 33.9437L89.9852 26.2536H89.946L88.5247 35.1682L82.5493 34.1309L86.1063 13.0103H92.1524L93.66 21.1996L95.356 11.7078Z" fill="white"/>
<path fill-rule="evenodd" clip-rule="evenodd" d="M112.403 11.6758L125.163 14.4602L126.113 19.1398L127.142 14.9203L138.001 17.5331L127.573 48.7383L119.572 46.2347L119.509 43.1072L111.83 42.0387L114.421 19.1398L112.498 18.7108L112.403 11.6758Z" fill="#0B0000"/>
<path fill-rule="evenodd" clip-rule="evenodd" d="M114.673 14.6001L122.988 16.2614L125.791 29.4423L128.657 17.6262L134.986 19.0223L126.074 45.8365L121.645 44.5184L121.261 28.3114L119.031 40.8137L114.202 40.0572L116.369 17.3533L114.547 16.8697L114.673 14.6001Z" fill="white"/>
<path fill-rule="evenodd" clip-rule="evenodd" d="M111.178 38.4347C108.422 39.4642 105.493 39.3472 103.137 38.0993C100.955 36.9528 99.4312 34.964 98.8423 32.5072C97.6645 27.6092 100.923 22.0171 106.105 20.0438C108.893 18.9987 111.845 19.1235 114.217 20.3792C116.376 21.5179 117.884 23.4599 118.457 25.8466C119.658 30.8147 116.4 36.4615 111.178 38.4347Z" fill="#0B0000"/>
<path fill-rule="evenodd" clip-rule="evenodd" d="M116.437 26.3C115.495 22.3691 111.271 20.3959 106.936 22.0181C102.735 23.617 99.9793 28.1328 100.929 32.0637C101.903 36.1194 106.088 38.0848 110.423 36.4625C114.655 34.8715 117.411 30.3244 116.437 26.3Z" fill="white"/>
<path fill-rule="evenodd" clip-rule="evenodd" d="M113.289 26.9928C113.203 29.1611 111.303 30.7989 108.979 30.7053C106.694 30.6117 104.935 28.8335 105.021 26.6653C105.107 24.6296 107 22.9918 109.324 23.0854C111.617 23.179 113.376 24.9572 113.289 26.9928Z" fill="#0B0000"/>
<path fill-rule="evenodd" clip-rule="evenodd" d="M110.336 23.179C108.946 23.1244 107.784 24.0759 107.729 25.3004C107.682 26.5249 108.765 27.57 110.155 27.6246C111.545 27.6792 112.707 26.7277 112.762 25.5032C112.809 24.2787 111.726 23.2336 110.336 23.179Z" fill="white"/>
<path fill-rule="evenodd" clip-rule="evenodd" d="M40.8307 41.1656C38.0118 42.3511 34.9574 42.3511 32.4526 41.1578C30.1362 40.0503 28.4637 38.0537 27.7492 35.5189C26.3201 30.4727 29.4688 24.5218 34.7768 22.2522C37.6271 21.0589 40.7051 21.0589 43.2256 22.2678C45.5184 23.3597 47.1673 25.3173 47.8662 27.7741C49.3267 32.8905 46.1701 38.9038 40.8307 41.1656Z" fill="#0B0000"/>
<path fill-rule="evenodd" clip-rule="evenodd" d="M45.8481 28.0858C44.686 23.999 40.1789 22.1115 35.7032 23.999C31.361 25.8552 28.6678 30.7064 29.8299 34.7933C31.0234 39.0127 35.4991 40.8924 39.9747 39.0127C44.3483 37.1565 47.0416 32.2663 45.8481 28.0858Z" fill="white"/>
<path fill-rule="evenodd" clip-rule="evenodd" d="M42.818 28.8653C42.818 31.0335 40.9885 32.7415 38.6643 32.7415C36.3793 32.7415 34.5498 31.0335 34.5498 28.8653C34.5498 26.8296 36.3793 25.1138 38.7035 25.1138C40.9885 25.1138 42.818 26.8218 42.818 28.8653Z" fill="#0B0000"/>
<path fill-rule="evenodd" clip-rule="evenodd" d="M39.7158 25.168C38.326 25.168 37.1953 26.1663 37.1953 27.3908C37.1953 28.6153 38.3182 29.6136 39.7158 29.6136C41.1056 29.6136 42.2363 28.6153 42.2363 27.3908C42.2363 26.1663 41.1056 25.168 39.7158 25.168Z" fill="white"/>
<path fill-rule="evenodd" clip-rule="evenodd" d="M25.2758 33.6316C31.3376 29.2094 34.2271 22.5253 32.0364 17.5104C31.0785 15.3187 29.3981 13.5093 27.3409 12.3706C25.8961 11.4191 24.1765 10.8185 22.3705 10.6157C17.942 9.84359 12.6261 10.6391 7.39664 12.8463C5.47289 13.6575 3.67477 14.5934 2.05724 15.6151L0 16.902L1.23277 18.9766L5.06458 25.4111C5.06458 25.4111 6.24239 27.3921 6.25024 27.3843L8.33104 26.3782L8.62156 26.2378L18.1461 47.3663L19.0648 49.3941L21.2006 48.7156L26.3594 47.0777L28.6208 46.3602L28.024 44.0828L25.2758 33.6316Z" fill="black"/>
<path fill-rule="evenodd" clip-rule="evenodd" d="M29.7343 18.4998C28.9727 16.7606 27.6614 15.3957 25.9496 14.4364C24.709 13.6174 23.2721 13.2119 21.9294 13.0637C18.1133 12.4007 13.3628 13.0247 8.36102 15.1305C6.5786 15.8793 4.91396 16.7372 3.38281 17.7043L7.21462 24.1388C8.19613 23.663 9.25616 23.1561 9.82936 22.8519L20.4218 46.3357L25.5806 44.6979L22.4005 32.5465C28.5016 28.8262 31.5796 22.7193 29.7343 18.4998Z" fill="white"/>
<path fill-rule="evenodd" clip-rule="evenodd" d="M83.9235 24.6777L80.2958 21.4331L82.0782 19.5535L83.6801 17.861L82.2039 16.0594C79.3222 12.5341 74.713 11.1224 69.8761 12.2845C63.1469 13.8912 59.3544 19.6471 60.8541 25.9568C61.4587 28.4994 63.0605 30.6754 65.3769 32.0871C68.1408 33.7795 71.6193 34.2397 75.1606 33.3896C78.8982 32.4926 81.6464 30.9874 84.057 28.515L85.9886 26.5339L83.9235 24.6777Z" fill="#0B0000"/>
<path fill-rule="evenodd" clip-rule="evenodd" d="M78.3465 23.1411C77.4356 24.2096 76.3913 25.1845 74.5382 25.6291C73.9179 25.7773 73.0777 25.9177 72.5438 25.8241L80.3409 17.5801C78.1423 14.8894 74.5304 13.6415 70.4394 14.6242C65.3513 15.8409 61.9121 20.0525 63.1841 25.4185C64.2049 29.7316 69.0104 32.3755 74.5853 31.0418C77.9617 30.2307 80.3095 28.936 82.4138 26.7756L78.3465 23.1411Z" fill="white"/>
<path fill-rule="evenodd" clip-rule="evenodd" d="M66.1694 10.9269L75.7176 0L81.002 7.83835L68.9334 14.2806L66.1694 10.9269Z" fill="#0B0000"/>
<path fill-rule="evenodd" clip-rule="evenodd" d="M75.3083 3.47827L78.1036 7.25316L70.118 11.184L69.5605 10.3495L75.3083 3.47827Z" fill="white"/>
<path fill-rule="evenodd" clip-rule="evenodd" d="M69.3902 23.265C68.817 22.2277 68.9269 20.894 69.7828 19.9659C70.6073 19.0689 71.8636 18.8116 72.9393 19.2249L69.3902 23.265ZM69.7828 19.9659C68.9348 20.894 68.817 22.2277 69.3902 23.265L72.9393 19.2249C71.8636 18.8116 70.5994 19.0689 69.7828 19.9659ZM74.9102 18.6166C73.0885 16.9709 70.2775 17.1035 68.6207 18.913C66.9639 20.7224 67.0974 23.5146 68.9191 25.1602C69.0683 25.3006 69.2332 25.4176 69.3981 25.5268L75.2321 18.9286C75.1222 18.8194 75.0201 18.718 74.9102 18.6166ZM69.3902 23.265C68.817 22.2277 68.9269 20.894 69.7828 19.9659C70.6073 19.0689 71.8636 18.8116 72.9393 19.2249L69.3902 23.265Z" fill="black"/>
<path fill-rule="evenodd" clip-rule="evenodd" d="M25.7236 22.5167C25.2682 20.0287 22.0096 18.6326 18.7432 20.3719L19.5598 23.2265L20.8475 27.4381L21.4364 29.3568C23.8863 27.8203 26.3518 25.964 25.7236 22.5167ZM22.4807 26.3228C22.1274 25.1685 21.3658 22.6805 21.3658 22.6805C21.3736 22.6961 21.2087 22.1424 21.036 21.5262C21.7269 21.4014 22.3865 21.4638 22.9362 21.729C23.2424 21.8772 23.7685 22.2125 23.8784 22.8521C24.1375 24.2794 23.6428 25.3011 22.4807 26.3228Z" fill="black"/>
<path fill-rule="evenodd" clip-rule="evenodd" d="M27.123 50.9148C27.1309 50.9382 27.1387 50.9538 27.1466 50.9772C27.1466 50.985 27.1545 50.9928 27.1545 51.0006C27.1466 50.9694 27.1309 50.946 27.123 50.9148Z" fill="black"/>
<path fill-rule="evenodd" clip-rule="evenodd" d="M129.872 45.9075H132.22V46.2506H131.246V48.7854H130.846V46.2506H129.872V45.9075Z" fill="black"/>
<path fill-rule="evenodd" clip-rule="evenodd" d="M132.568 48.7854V45.9075H133.133L133.966 48.3409L134.79 45.9075H135.347V48.7854H134.978V47.0852C134.978 47.0228 134.978 46.9292 134.986 46.7966C134.986 46.664 134.986 46.5158 134.986 46.3598L134.162 48.7854H133.777L132.945 46.3598V46.4456C132.945 46.5158 132.945 46.625 132.953 46.7654C132.953 46.9058 132.96 47.015 132.96 47.0852V48.7854H132.568Z" fill="black"/>
</svg>
